<?xml version="1.0" encoding="iso-8859-1"?>
<svg fill="#fff" height="800px" width="800px" version="1.1" id="Layer_1" xmlns="http://www.w3.org/2000/svg" xmlns:xlink="http://www.w3.org/1999/xlink" 
	 viewBox="0 0 512 512" xml:space="preserve">
<g>
	<g>
		<path d="M361.739,272.696h-39.533c-11.526-24.206-31.159-43.723-55.076-55.259v-44.915h50.087
			c27.619,0,50.087-22.468,50.087-50.087c0-27.619-22.468-50.087-50.087-50.087H267.13V55.652c0-27.619-22.468-50.087-50.087-50.087
			c-27.619,0-50.087,22.468-50.087,50.087v16.696H116.87c-27.619,0-50.087,22.468-50.087,50.087
			c0,27.619,22.468,50.087,50.087,50.087h50.087v44.993c-23.721,11.43-43.43,30.665-55.087,55.181H16.696
			C7.479,272.696,0,280.174,0,289.391v100.174c0,9.217,7.479,16.696,16.696,16.696h94.761
			c19.294,40.38,60.337,66.783,105.587,66.783c45.087,0,85.935-26.391,105.087-66.783h39.609c9.206,0,16.696,7.49,16.696,16.696
			v66.783c0,9.217,7.479,16.696,16.696,16.696h100.174c9.217,0,16.696-7.479,16.696-16.696v-66.783
			C512,340.098,444.597,272.696,361.739,272.696z M116.87,139.13c-9.206,0-16.696-7.49-16.696-16.696s7.49-16.696,16.696-16.696
			h200.348c9.206,0,16.696,7.49,16.696,16.696c0,9.206-7.49,16.696-16.696,16.696H116.87z"/>
	</g>
</g>
</svg>